<svg id="Layer_1" data-name="Layer 1" xmlns="http://www.w3.org/2000/svg" viewBox="0 0 435.2 424.57"><defs><style>.cls-1{fill:#fff;stroke:#000;stroke-miterlimit:10;stroke-width:10px;}</style></defs><g id="Layer_2" data-name="Layer 2"><g id="Surfaces"><g id="Photo_Surface" data-name="Photo Surface"><g id="Outline_no_shadow" data-name="Outline no shadow"><path class="cls-1" d="M112.7,42.72H387.3A75.23,75.23,0,0,1,462.6,118V382a75.23,75.23,0,0,1-75.3,75.29H112.7A75.23,75.23,0,0,1,37.4,382V118A75.23,75.23,0,0,1,112.7,42.72Z" transform="translate(-32.4 -37.72)"/></g></g></g><path d="M250.1,310.16H178.71l-14.58,45.09a3.36,3.36,0,0,1-3.65,2.69H124.41c-2.11,0-2.69-1.15-2.11-3.45L184.09,176.6c.57-1.92,1.15-4,1.92-6.33a67.69,67.69,0,0,0,1.15-12.48,1.9,1.9,0,0,1,1.53-2.11h49.7c1.54,0,2.31.58,2.5,1.54l70,197.65c.58,2.11,0,3.07-1.92,3.07h-40.1a2.89,2.89,0,0,1-3.07-2.11Zm-60.26-39h48.75c-1.16-4-2.69-8.82-4.42-13.81-1.72-5.18-3.45-10.75-5.18-16.51-1.92-5.94-3.65-11.7-5.56-17.65s-3.65-11.51-5.19-17.08c-1.53-5.37-2.87-10.36-4.22-15h-.38a235,235,0,0,1-6.53,24.76c-2.87,9.21-5.75,18.8-8.82,28.4-2.69,9.79-5.57,18.8-8.45,26.86Zm163.88-81.94a23.74,23.74,0,0,1-17.08-6.71,25,25,0,0,1-6.52-17.66A22.55,22.55,0,0,1,337,147.82a24.53,24.53,0,0,1,17.08-6.72c7.48,0,13.24,2.3,17.46,6.72a26.39,26.39,0,0,1-.38,34.73,22.57,22.57,0,0,1-17.47,6.71ZM332.23,355.83V208.07c0-1.92.77-2.69,2.5-2.69h38c1.73,0,2.5,1,2.5,2.69V355.83c0,2.11-.77,3.07-2.5,3.07H335.11C333.19,358.9,332.23,357.75,332.23,355.83Z" transform="translate(-32.4 -37.72)"/></g></svg>