<svg id="Layer_1" data-name="Layer 1" xmlns="http://www.w3.org/2000/svg" viewBox="0 0 424.8 424.76"><defs><style>.cls-1{fill:none;stroke:#000;stroke-miterlimit:10;stroke-width:10px;}.cls-1,.cls-2{fill-rule:evenodd;}</style></defs><path class="cls-1" d="M457.4,250A207.24,207.24,0,0,1,250,457.38,207.24,207.24,0,0,1,42.6,250,207.24,207.24,0,0,1,250,42.62,207.19,207.19,0,0,1,457.4,250" transform="translate(-37.6 -37.62)"/><path class="cls-2" d="M326.47,165.75,280.38,324a14.65,14.65,0,0,1-4.77,7.26,12.55,12.55,0,0,1-8.46,3H233a12.77,12.77,0,0,1-8.62-3,13.3,13.3,0,0,1-4.48-7.26L173.53,165.75h38.58l34.63,137.76a.71.71,0,0,0,.34.58l.66.21h4.81a1,1,0,0,0,1-.79L288,165.75h38.45" transform="translate(-37.6 -37.62)"/></svg>