<svg id="Layer_1" data-name="Layer 1" xmlns="http://www.w3.org/2000/svg" viewBox="0 0 435.2 424.57"><defs><style>.cls-1{fill:#fff;stroke:#000;stroke-miterlimit:10;stroke-width:10px;}</style></defs><g id="Layer_2" data-name="Layer 2"><g id="Surfaces"><g id="Photo_Surface" data-name="Photo Surface"><g id="Outline_no_shadow" data-name="Outline no shadow"><path class="cls-1" d="M112.7,42.72H387.3A75.23,75.23,0,0,1,462.6,118V382a75.23,75.23,0,0,1-75.3,75.29H112.7A75.23,75.23,0,0,1,37.4,382V118A75.23,75.23,0,0,1,112.7,42.72Z" transform="translate(-32.4 -37.72)"/></g></g></g><g id="Outlined_Mnemonics_Logos" data-name="Outlined Mnemonics Logos"><g id="Ps"><path d="M133.07,333.44V151.14c0-1.24.53-1.95,1.77-1.95,3,0,5.85,0,9.92-.17,4.26-.18,8.68-.18,13.47-.36s9.92-.18,15.41-.35,10.81-.18,16.12-.18c14.53,0,26.58,1.77,36.5,5.49A63.15,63.15,0,0,1,250,168.15a56.33,56.33,0,0,1,12.93,20.2,67.75,67.75,0,0,1,4.08,23q0,22.85-10.63,37.73a60.65,60.65,0,0,1-28.53,21.62c-12,4.43-25.33,6-39.86,6-4.25,0-7.08,0-8.86-.18s-4.25-.17-7.61-.17v56.87a2.21,2.21,0,0,1-2,2.48H135.2C133.78,335.75,133.07,335,133.07,333.44Zm38.62-150v59.52c2.48.18,4.79.36,6.91.36H188a66.42,66.42,0,0,0,20.38-3.19,30.44,30.44,0,0,0,14.52-9.39c3.72-4.43,5.5-10.45,5.5-18.25a29.21,29.21,0,0,0-4.08-15.77,25.71,25.71,0,0,0-12.4-10.1A52.08,52.08,0,0,0,191,183c-4.6,0-8.68,0-12,.18a40,40,0,0,0-7.27.18Z" transform="translate(-32.4 -37.72)"/><path d="M377.56,232.11a62.65,62.65,0,0,0-17-6,93.82,93.82,0,0,0-19.84-2.3A35.43,35.43,0,0,0,330.08,225a9.1,9.1,0,0,0-5.49,3.54,9.37,9.37,0,0,0-1.42,4.79,7.87,7.87,0,0,0,1.77,4.6,20.08,20.08,0,0,0,6,4.79c4.08,2.12,8.33,4.07,12.58,5.84a128.27,128.27,0,0,1,27.29,12.94,41.22,41.22,0,0,1,14,14.7,38.28,38.28,0,0,1,4.08,18.25A41.31,41.31,0,0,1,382,318a44.39,44.39,0,0,1-19.84,15.77c-8.69,3.72-19.32,5.67-32.07,5.67a122.48,122.48,0,0,1-24.1-2.3,72.07,72.07,0,0,1-18.07-5.67,3.5,3.5,0,0,1-2-3.37V297.3a1.92,1.92,0,0,1,.71-1.59,1.34,1.34,0,0,1,1.6.18,75.89,75.89,0,0,0,22,8.68,82.47,82.47,0,0,0,20.9,2.65c6.73,0,11.52-.88,14.71-2.48a8.23,8.23,0,0,0,4.78-7.44c0-2.48-1.42-4.78-4.25-7.08s-8.68-5-17.36-8.33a108.08,108.08,0,0,1-25.16-12.76,45.82,45.82,0,0,1-13.47-15.06A38,38,0,0,1,286.32,236a41.63,41.63,0,0,1,6-21.43,43.67,43.67,0,0,1,18.6-16.3c8.33-4.25,18.78-6.2,31.36-6.2a153.07,153.07,0,0,1,22,1.59,62.4,62.4,0,0,1,15.24,4.08,3.06,3.06,0,0,1,1.77,1.59,8.78,8.78,0,0,1,.35,2.13v28.87a2.2,2.2,0,0,1-.88,1.78C379.15,232.46,378.27,232.46,377.56,232.11Z" transform="translate(-32.4 -37.72)"/></g></g></g></svg>