<?xml version="1.0" encoding="UTF-8"?>
<svg id="Layer_1" data-name="Layer 1" xmlns="http://www.w3.org/2000/svg" viewBox="0 0 563.84 440.38">
  <defs>
    <style>
      .cls-1, .cls-2, .cls-3, .cls-4 {
        fill: #fff;
      }

      .cls-2 {
        stroke-width: 4px;
      }

      .cls-2, .cls-3, .cls-4, .cls-5, .cls-6 {
        stroke: #231f20;
        stroke-miterlimit: 10;
      }

      .cls-4 {
        stroke-width: 7px;
      }

      .cls-6 {
        stroke-width: 2px;
      }
    </style>
  </defs>
  <rect class="cls-1" x="78.37" y="17.4" width="406.99" height="270.57"/>
  <g>
    <g>
      <path class="cls-6" d="m1,429.73c0-6.58,0-13.17,0-19.75.83-1.53,1.83-2.99,2.47-4.6,17.14-43.03,34.3-86.05,51.27-129.14,1.42-3.61,2.18-7.74,2.19-11.63.12-81.74.09-163.48.09-245.21,0-14.08,4.26-18.4,18.17-18.4,137.69,0,275.39,0,413.08,0,14.06,0,18.42,4.3,18.42,18.17,0,81.92-.03,163.84.1,245.76,0,3.89.82,8,2.24,11.62,16.42,41.75,32.93,83.46,49.68,125.07,2.79,6.93,4.33,13.73,4.1,21.21-.37,11.75-4.85,16.49-16.79,16.49-176.09.01-352.19,0-528.28.06-7.64,0-13.49-2.4-16.75-9.65ZM94.65,33.75v219.04h374.28V33.75H94.65Zm133.2,364h108.04c-3.6-11.18-6.96-21.92-10.63-32.54-.4-1.15-2.63-2.37-4.02-2.38-26.29-.14-52.58-.14-78.87,0-1.38,0-3.58,1.29-3.99,2.47-3.65,10.64-6.99,21.38-10.53,32.45Z"/>
      <path class="cls-6" d="m227.85,397.75c3.54-11.07,6.88-21.82,10.53-32.45.4-1.18,2.61-2.46,3.99-2.47,26.29-.15,52.58-.14,78.87,0,1.39,0,3.62,1.23,4.02,2.38,3.68,10.63,7.03,21.37,10.63,32.54h-108.04Z"/>
    </g>
    <g>
      <path class="cls-1" d="m171.86,354.33c.86-3.45,1.27-6.72,2.62-9.65.45-.98,3.32-1.53,5.09-1.53,28.13-.09,56.27-.07,84.4-.07,14.75,0,29.49,0,44.24,0,1.82,0,3.64,0,5.72,0,.41,4,.76,7.49,1.14,11.24h-143.21Z"/>
      <path class="cls-1" d="m392,354.31h-27.23c-1.72-8.66-3.42-17.23-5.25-26.43,8.05,0,15.76-.04,23.46.07.76.01,2.01.83,2.19,1.46,2.33,8.16,4.51,16.35,6.83,24.9Z"/>
      <path class="cls-1" d="m173.27,312.49c0,.9.06,1.2,0,1.48q-1.93,8.26-11.56,8.26c-16.93,0-33.87,0-50.82,0,1.04-7.91,3.28-9.74,11.72-9.74,16.75,0,33.5,0,50.67,0Z"/>
      <path class="cls-1" d="m321.05,299.4h56.02c.6,2.61,1.23,5.28,1.97,8.5-7.8,0-15.04,0-22.28,0-9.14,0-18.27,0-27.41,0q-8.92,0-8.3-8.5Z"/>
      <path class="cls-1" d="m133.81,354.55c1.25-3.6,2.2-6.73,3.47-9.75.31-.73,1.63-1.59,2.5-1.6,7.75-.12,15.51-.07,24.11-.07-.9,3.65-1.53,6.79-2.52,9.84-.22.69-1.67,1.5-2.57,1.51-8.1.12-16.19.07-24.99.07Z"/>
      <path class="cls-1" d="m399.84,343.12c8.55,0,16.3-.07,24.05.09.97.02,2.41,1.05,2.78,1.9,1.25,2.88,2.11,5.89,3.32,9.45-8.72,0-16.79.06-24.86-.08-.97-.02-2.47-1.02-2.76-1.83-1-2.8-1.57-5.73-2.54-9.52Z"/>
      <path class="cls-1" d="m324.6,343.11c8.53,0,16.1-.11,23.65.12,1.15.03,2.9,1.45,3.22,2.51.82,2.68.99,5.51,1.47,8.57h-27c-.42-3.52-.83-6.97-1.34-11.19Z"/>
      <path class="cls-1" d="m436.89,343.1c8.52,0,16.1-.08,23.67.09,1.19.03,2.83.97,3.42,1.91,1.79,2.81,3.17,5.81,5.08,9.44-8.99,0-17.17.05-25.34-.07-.9-.01-2.21-.86-2.58-1.61-1.48-2.95-2.66-6.02-4.25-9.75Z"/>
      <path class="cls-1" d="m126.92,343.1c-1.55,3.61-2.57,6.59-4.14,9.33-.58,1.01-2.43,2-3.74,2.03-7.75.19-15.5.09-24.26.09,1.97-3.78,3.57-7.11,5.48-10.28.4-.67,1.97-1.11,3-1.13,7.58-.09,15.15-.05,23.65-.05Z"/>
      <path class="cls-1" d="m250.93,327.13h25.47c0,3.09.22,6.02-.14,8.9-.11.86-1.83,2.21-2.84,2.24-7.4.19-14.81.1-22.49.1v-11.24Z"/>
      <path class="cls-1" d="m312.89,327.18v11.16c-7.73,0-15.45.07-23.16-.11-.81-.02-2.15-1.46-2.24-2.32-.29-2.77-.11-5.58-.11-8.73h25.51Z"/>
      <path class="cls-1" d="m102.3,338.38c1.61-3.71,2.79-6.79,4.34-9.72.44-.83,1.96-1.7,3-1.72,7.26-.15,14.52-.08,22.81-.08-1.31,3.77-2.26,6.99-3.64,10.06-.33.74-2.08,1.37-3.2,1.39-7.44.12-14.88.06-23.31.06Z"/>
      <path class="cls-1" d="m168.24,326.86c-1.03,4.17-1.89,7.62-2.8,11.29h-26.16c1.19-3.46,2.17-6.7,3.49-9.82.29-.69,1.79-1.39,2.75-1.4,7.25-.12,14.51-.06,22.72-.06Z"/>
      <path class="cls-1" d="m204.37,326.87c-.86,4.32-1.56,7.77-2.25,11.25h-25.96c.79-3.2,1.29-6.13,2.31-8.92.35-.97,1.97-2.2,3.05-2.23,7.4-.2,14.81-.1,22.85-.1Z"/>
      <path class="cls-1" d="m398.41,338.19c-.92-3.61-1.8-7.05-2.88-11.25,8.24,0,15.93-.04,23.62.07.7.01,1.73.93,2.01,1.62,1.21,3.03,2.21,6.13,3.4,9.56h-26.15Z"/>
      <path class="cls-1" d="m461.56,338.37c-8.57,0-16.34.05-24.1-.07-.89-.01-2.25-.83-2.55-1.55-1.27-3.02-2.21-6.15-3.5-9.88,8.13,0,15.56-.05,22.97.07.92.01,2.29.76,2.66,1.48,1.59,3.07,2.88,6.26,4.51,9.94Z"/>
      <path class="cls-1" d="m215.07,327.16h25.97c-.52,3.28-.76,6.24-1.56,9.06-.25.89-2,2.03-3.1,2.06-7.24.18-14.49.09-22.41.09.37-3.79.71-7.25,1.1-11.21Z"/>
      <path class="cls-1" d="m348.63,327.23c.45,3.69.87,7.05,1.37,11.12-8.02,0-15.71.07-23.39-.1-.85-.02-2.17-1.37-2.4-2.27-.69-2.73-.94-5.54-1.43-8.74h25.86Z"/>
      <path class="cls-1" d="m390.14,312.52c7.84,0,15.1-.11,22.36.11,1.21.04,2.87,1.36,3.43,2.45,1.02,1.99,1.37,4.24,2.21,7.11-8.02,0-15.71.08-23.38-.1-.86-.02-2.06-1.36-2.45-2.29-.86-2.07-1.31-4.28-2.16-7.27Z"/>
      <path class="cls-1" d="m453.83,322.23c-7.84,0-14.92.13-21.97-.11-1.38-.05-3.24-1.23-3.93-2.35-1.26-2.01-1.8-4.37-2.88-7.21,7.78,0,14.98-.22,22.14.19,1.41.08,2.85,2.46,3.9,3.97,1.09,1.57,1.72,3.38,2.76,5.51Z"/>
      <path class="cls-1" d="m180.79,321.9q1.88-9.41,12.16-9.41c4.68,0,9.36,0,13.86,0,.26.9.47,1.2.4,1.46-2.4,9.68.62,8.16-10.97,8.27-4.72.05-9.45-.02-14.17-.05-.32,0-.65-.14-1.28-.28Z"/>
      <path class="cls-1" d="m356.41,312.52c7.54,0,14.43-.12,21.31.11,1.22.04,2.93,1.33,3.45,2.4,1.03,2.12,1.4,4.5,2.16,7.2-7.67,0-14.9.11-22.13-.11-1.2-.04-2.96-1.29-3.37-2.33-.83-2.04-.9-4.32-1.42-7.27Z"/>
      <path class="cls-1" d="m345.6,312.85c.63,2.97,1.23,5.84,1.91,9.07h-24.98c-.3-2.92-.59-5.79-.92-9.07h23.98Z"/>
      <path class="cls-1" d="m242.11,312.82c-.28,3.25-.52,6.12-.78,9.19h-24.93c.58-3.07,1.14-6.03,1.73-9.19h23.98Z"/>
      <path class="cls-1" d="m311.26,322.04h-23.55c-.31-.53-.67-.9-.72-1.3-1.02-8.13-.9-8.25,8.32-8.25,3.55,0,7.11.15,10.65-.04,3.69-.19,5.9.6,5.35,4.37-.23,1.6-.04,3.24-.04,5.22Z"/>
      <path class="cls-1" d="m252.46,321.94c.35-11.34-1.27-9.17,10.09-9.44,1.86-.04,3.72,0,5.58,0,9.77,0,10.23.52,8.19,9.45h-23.86Z"/>
      <path class="cls-1" d="m143.52,299.62c-1.83,8.22-1.9,8.27-10.64,8.28-5.21,0-10.42,0-15.66,0,1.07-7.91,2.15-8.78,10.8-8.77,4.88,0,9.76.06,14.65.12.29,0,.57.24.85.37Z"/>
      <path class="cls-1" d="m446.84,307.89c-7.12,0-13.85.2-20.57-.06-6.13-.23-4.15-5.42-7.03-8.68,7.95,0,14.83-.09,21.71.04,3.16.06,4.12,1.63,5.89,8.7Z"/>
      <path class="cls-1" d="m185.27,307.89q1.43-8.77,10.05-8.77c4.86,0,9.72,0,14.53,0,.61,7.96-.19,8.77-8.12,8.77-5.38,0-10.76,0-16.46,0Z"/>
      <path class="cls-1" d="m242.99,299.12c0,1.8-.08,2.83.01,3.85.33,3.75-1.31,5.27-5.84,5.01-6-.35-12.04-.09-18.64-.09.61-3.06,1.12-5.63,1.75-8.77,3.75,0,7.42,0,11.08,0s7.34,0,11.64,0Z"/>
      <path class="cls-1" d="m151.9,307.88c.3-7.88,1.25-8.75,9.27-8.76,5.04,0,10.07,0,15.7,0-.49,2.66-.65,4.85-1.39,6.88-.3.81-1.85,1.78-2.86,1.8-6.9.16-13.81.08-20.72.08Z"/>
      <path class="cls-1" d="m386.86,299.14c7.3,0,13.72-.33,20.09.1,5.8.39,3.6,5.34,5.98,8.65-7.76,0-14.65.14-21.51-.13-1.18-.05-2.71-1.68-3.31-2.88-.78-1.55-.79-3.41-1.25-5.73Z"/>
      <path class="cls-1" d="m276.19,307.65h-22.33c-.13-.76-.36-1.45-.36-2.13q.01-6.38,7.16-6.39c2.87,0,5.74,0,8.62,0,8.55,0,9.09.65,6.91,8.52Z"/>
      <path class="cls-1" d="m287.2,307.66c-.17-1.43-.26-2.46-.42-3.48-.59-3.75.86-5.52,5.52-5.12,3.85.33,7.8.33,11.64,0,4.83-.42,6.97,1.06,6.34,5.38-.15.99-.15,2-.24,3.22h-22.85Z"/>
    </g>
  </g>
  <g>
    <g>
      <ellipse class="cls-5" cx="160.17" cy="94.73" rx="14.07" ry="15.26"/>
      <ellipse class="cls-3" cx="160.17" cy="93.97" rx="1.94" ry="5.83"/>
    </g>
    <g>
      <ellipse class="cls-5" cx="225.27" cy="96.95" rx="15.57" ry="16.89"/>
      <ellipse class="cls-3" cx="225.71" cy="96.15" rx="1.94" ry="5.83"/>
    </g>
    <path class="cls-4" d="m146.32,26.82c7.73.87,15.07,17.4,15.8,24.68.12,1.16.55,6.91,2.12,7.11.24.03.43-.08.49-.1,7.92-4.02,51.96,1.07,51.96,1.07.3.03.97.11,1.77-.13,3.92-1.18,4.74-8.27,5.56-11.87,2.12-9.29,9.82-19.78,15.07-20,.33-.01.57.04.8.08,8.92,1.42,15.5,18.69,16.21,20.61,4.98,13.42,3.97,18.65,7.94,43.11,3.41,20.97,4.95,23.98,2.75,31-2.64,8.43-7.98,15.05-14.02,21.21-1.58,1.62-3.22,3.17-4.96,4.88,4.92,7.7,9.82,15.29,14.63,22.94,3.02,4.8,5.76,9.77,8.91,14.48.8,1.2,2.65,2.4,4.03,2.41,15.22.14,28.41,5.88,39.65,15.49,31.44,26.85,52.04,60.4,60.68,101.06,5.51,25.9,4.08,51.04-7.71,75.15-.37.75-.55,1.58-.85,2.45,4.09.54,24.22,2.79,40.39-10.88,11.3-9.55,14.67-21.85,15.76-26.06,6.93-26.81-7.53-57.53-23.56-76.11-9.17-10.64-19.13-17.74-16.96-22.37,1.86-3.97,11.68-4.03,18.69-2.27,30.97,7.75,41.76,59.46,43.41,67.36,5.71,27.33.32,46.14-1.16,51.73-5.83,22.01-20.17,35.72-41.66,42.34-12.38,3.81-25.15,5.38-38.02,5.23-17.89-.2-35.77-1.44-53.66-1.6-13.2-.12-26.41.66-39.61,1.23-18.87.8-37.73,2.08-56.61,2.5-6.17.13-12.54-1.25-18.54-2.93-7.8-2.19-9.5-7.72-3.85-13.56,5.55-5.73,12.16-10.47,18.52-15.36,2.19-1.68,2.93-2.94,2.32-5.85-2.54-12.31-5.03-24.66-6.88-37.09-2.75-18.52-10.43-34.79-21.03-49.95-11.26-16.1-22.44-32.27-30.1-50.53-7.12-16.96-11.19-34.69-13.35-52.87-1.35-11.38-2.06-22.83-3.27-34.22-.18-1.68-1.24-3.48-2.38-4.81-3.5-4.12-7.5-7.83-10.83-12.08-3.88-4.95-6.33-10.22-7.45-15.69-1.62-7.95.13-14.01,1.67-20.39,5.78-23.99.29-25.3,5.58-41.41,3.8-11.59,13.14-30.95,21.72-29.99Zm29.42,75.18c-3.66-5.86-7.68-10.34-13.38-12.72-3.01-1.26-6.49-1.77-9.77-1.87-3.43-.11-6.87,1.37-7.29,5.18-.42,3.81,2.83,5.52,5.96,6.83,7.65,3.2,15.67,2.77,24.49,2.59Zm33.96.11c2.41,0,4.45.24,6.41-.04,6.28-.92,12.6-1.73,18.75-3.21,2.75-.66,5.29-2.89,4.8-6.37-.48-3.38-3.22-4.47-6.22-5.01-8.38-1.52-19.13,4.94-23.74,14.64Z"/>
  </g>
  <path class="cls-2" d="m198.54,114.78c-.72,2.04-2.69,3.38-4.8,3.29-1.98-.08-3.73-1.39-4.41-3.29-2.53,0-4.6-2.08-4.6-4.6s2.06-4.6,4.6-4.6h9.21c2.54,0,4.6,2.06,4.6,4.6s-2.06,4.6-4.6,4.6Z"/>
</svg>