<svg id="Capa_1" data-name="Capa 1" xmlns="http://www.w3.org/2000/svg" viewBox="0 0 994.61 823.95"><defs><style>.cls-1,.cls-2{fill:#1d1d1b;}.cls-2{font-size:493.58px;font-family:FiraCode-Bold, Fira Code;font-weight:700;letter-spacing:-0.1em;}</style></defs><path class="cls-1" d="M397.43,892.42H37A34.32,34.32,0,0,1,2.7,858.09V122.35A34.31,34.31,0,0,1,37,88H397.43c189.7,0,343.49,153.78,343.49,343.49V548.93C740.92,738.63,587.13,892.42,397.43,892.42Zm165.25-402.2h0c0-170.5-138.22-308.71-308.72-308.71h-133a26.63,26.63,0,0,0-26.64,26.63V772.3a26.64,26.64,0,0,0,26.64,26.64H254C424.46,798.94,562.68,660.72,562.68,490.22Z" transform="translate(-2.7 -88.03)"/><text class="cls-2" transform="translate(217.29 570.83)">&lt; &gt;</text><path class="cls-1" d="M871.18,873.46a32.05,32.05,0,0,1-21.52,22c-33.93,10.34-95.9,22.76-168.16,3.24-75.66-20.43-124.22-65.51-148.19-92.56a32,32,0,0,1-6.84-29.94q11.47-40.62,22.93-81.25c6.43-22.76,34.52-31,52.14-15.25a299.22,299.22,0,0,0,256,72.33,32,32,0,0,1,36.6,40.24Q882.65,832.83,871.18,873.46Z" transform="translate(-2.7 -88.03)"/></svg>