<?xml version="1.0" encoding="UTF-8"?>
<svg id="Capa_1" data-name="Capa 1" xmlns="http://www.w3.org/2000/svg" viewBox="0 0 597.3 599.92">
  <defs>
    <style>
      .cls-1 {
        fill: #fff;
        fill-rule: evenodd;
      }

      .cls-2 {
        fill: none;
      }
    </style>
  </defs>
  <rect id="Icons" class="cls-2" x="-8900" y="-900.2" width="16000" height="10000"/>
  <g id="Icons1">
    <path id="error-circle" class="cls-1" d="m300.42,600.22c77.06-.74,153.35-32.74,208.21-87.07,65.16-64.55,98.71-160.04,87.01-251.2C575.59,105.71,447.46-.3,298.5-.3,185.34-.3,75.34,70.66,27.09,173.56c-36.94,78.78-37,173.89,0,252.81,47.9,102.17,156.1,172.76,269.49,173.85,1.29.01,2.56.01,3.85,0h-.01Zm-160.72-178.74l121.67-121.68-121.8-121.8,35.05-35.04,121.8,121.8,125.97-125.97,35.1,35.09-125.97,125.99,126.22,126.22-35.04,35.05-126.24-126.24-121.68,121.68-35.1-35.1h.02Z"/>
  </g>
</svg>