<?xml version="1.0" encoding="utf-8"?>
<!-- Generator: Adobe Illustrator 27.1.0, SVG Export Plug-In . SVG Version: 6.00 Build 0)  -->
<svg version="1.1" id="Capa_1" xmlns="http://www.w3.org/2000/svg" xmlns:xlink="http://www.w3.org/1999/xlink" x="0px" y="0px"
	 viewBox="0 0 576 512" style="enable-background:new 0 0 576 512;" xml:space="preserve">
<style type="text/css">
	.st0{fill:#FFFFFF;}
</style>
<path class="st0" d="M288,32c-80.8,0-145.5,36.8-192.6,80.6C48.6,156,17.3,208,2.5,243.7c-3.3,7.9-3.3,16.7,0,24.6
	C17.3,304,48.6,356,95.4,399.4C142.5,443.2,207.2,480,288,480s145.5-36.8,192.6-80.6c46.8-43.5,78.1-95.4,93-131.1
	c3.3-7.9,3.3-16.7,0-24.6c-14.9-35.7-46.2-87.7-93-131.1C433.5,68.8,368.8,32,288,32z M144,256c0-79.5,64.5-144,144-144
	s144,64.5,144,144s-64.5,144-144,144S144,335.5,144,256z M288,192c0,35.3-28.7,64-64,64c-7.1,0-13.9-1.2-20.3-3.3
	c-5.5-1.8-11.9,1.6-11.7,7.4c0.3,6.9,1.3,13.8,3.2,20.7c13.7,51.2,66.4,81.6,117.6,67.9s81.6-66.4,67.9-117.6
	c-11.1-41.5-47.8-69.4-88.6-71.1c-5.8-0.2-9.2,6.1-7.4,11.7C286.8,178.1,288,184.9,288,192L288,192z"/>
</svg>
